<?xml version="1.0" encoding="UTF-8" standalone="no"?>
<!-- Created with Inkscape (http://www.inkscape.org/) -->

<svg
   width="512"
   height="512"
   viewBox="0 0 135.46667 135.46667"
   version="1.1"
   id="svg5"
   sodipodi:docname="assassin_logo.svg"
   inkscape:version="1.1 (c4e8f9ed74, 2021-05-24)"
   xmlns:inkscape="http://www.inkscape.org/namespaces/inkscape"
   xmlns:sodipodi="http://sodipodi.sourceforge.net/DTD/sodipodi-0.dtd"
   xmlns="http://www.w3.org/2000/svg"
   xmlns:svg="http://www.w3.org/2000/svg">
  <sodipodi:namedview
     id="namedview7"
     pagecolor="#ffffff"
     bordercolor="#666666"
     borderopacity="1.0"
     inkscape:pageshadow="2"
     inkscape:pageopacity="0.0"
     inkscape:pagecheckerboard="0"
     inkscape:document-units="px"
     showgrid="false"
     inkscape:zoom="1.28"
     inkscape:cx="264.45313"
     inkscape:cy="273.4375"
     inkscape:window-width="1920"
     inkscape:window-height="1021"
     inkscape:window-x="0"
     inkscape:window-y="30"
     inkscape:window-maximized="1"
     inkscape:current-layer="layer1" />
  <defs
     id="defs2" />
  <g
     inkscape:label="Layer 1"
     inkscape:groupmode="layer"
     id="layer1">
    <path
       d="m 54.994562,68.756234 c 0.189049,0.190275 -0.715815,1.362489 -3.258196,4.220435 -1.936027,2.176338 -4.250626,2.662686 -4.127377,4.763998 0.145298,2.477303 2.35994,1.859453 5.489103,5.004223 2.824844,2.83892 5.215143,5.16202 5.311796,5.16202 0.09666,0 2.18152,-1.79861 4.633048,-3.99669 l 4.457142,-3.99669 12.207655,-10.901521 c 3.984186,-3.789452 8.240868,-7.285408 12.273807,-11.021628 15.44619,-13.78871 15.85574,-14.172615 16.37211,-15.341447 0.33504,-0.758393 0.62039,-2.960617 1.16847,-9.016928 0.39886,-4.407502 0.67031,-8.068743 0.60323,-8.136103 -0.0671,-0.06736 -3.78162,0.207849 -8.25431,0.611862 -14.016978,1.272487 -23.607754,17.314721 -34.388318,29.000387"
       style="color:#000000;fill:#37718e;fill-opacity:1;stroke-width:0.240666;-inkscape-stroke:none"
       id="path52655-2"
       sodipodi:nodetypes="cssssccccssscc"
       inkscape:export-filename="/home/davide/Desktop/assassin.png"
       inkscape:export-xdpi="96"
       inkscape:export-ydpi="96" />
    <path
       id="path1067"
       style="color:#000000;display:inline;fill:#37718e;fill-opacity:1;stroke-width:0.240666;-inkscape-stroke:none"
       d="m 32.369689,24.492645 c -8.342659,-0.09629 -9.36464,8.720929 -5.651881,18.311271 0.431809,0.872905 3.272091,3.536749 14.277221,13.389492 7.555961,6.764745 26.361095,23.57521 26.505058,23.720102 L 79.707742,69.012 c 0,0 -17.807936,-20.044946 -24.468797,-27.550519 C 46.453888,31.56235 42.86355,27.679333 42.163493,27.320704 38.163336,25.387116 34.923562,24.522123 32.369689,24.492645 Z M 79.707742,69.012 67.500087,79.91351 l 4.255431,3.82523 c 2.340351,2.10389 4.402379,3.91652 4.582388,4.02778 0.235706,0.1457 2.725068,-0.27502 6.42444,-3.9868 2.82508,-2.83455 4.175705,-6.231588 4.175705,-6.370209 0,-0.13862 -1.626751,-2.084987 -3.615155,-4.324993 z m 15.519792,17.93304 c 0,0 0.10554,0.37429 0.29646,0.96891 -0.19092,-0.59462 -0.29646,-0.96891 -0.29646,-0.96891 z m 0.29646,0.96891 c 0.19091,0.59462 0.46708,1.40964 0.80821,2.29155 -0.34113,-0.88191 -0.6173,-1.69693 -0.80821,-2.29155 z m 0.80821,2.29155 c 0.17057,0.44097 0.35771,0.89859 0.5582,1.35374 -0.20049,-0.45515 -0.38763,-0.91277 -0.5582,-1.35374 z m 0.5582,1.35374 c 0.2005,0.45516 0.41449,0.90773 0.63982,1.33867 -0.22533,-0.43094 -0.43932,-0.88351 -0.63982,-1.33867 z m 0.63982,1.33867 c 0.22533,0.43094 0.46181,0.84036 0.70689,1.20866 -0.24508,-0.3683 -0.48156,-0.77772 -0.70689,-1.20866 z m 0.70689,1.20866 c 0.24509,0.36831 0.49875,0.69553 0.7585,0.96278 -0.25975,-0.26725 -0.51341,-0.59447 -0.7585,-0.96278 z m 0.7585,0.96278 c 0.27841,0.28645 0.62094,0.56796 1.007576,0.84126 -0.386626,-0.2733 -0.729166,-0.55481 -1.007576,-0.84126 z m 1.007576,0.84126 c 0.38662,0.27331 0.8172,0.5386 1.27119,0.79228 -0.45399,-0.25368 -0.88457,-0.51897 -1.27119,-0.79228 z m 1.27119,0.79228 c 0.45398,0.25368 0.93143,0.49591 1.41191,0.7235 -0.48048,-0.22759 -0.95793,-0.46982 -1.41191,-0.7235 z m 1.41191,0.7235 c 0.48048,0.22759 0.9641,0.4404 1.43021,0.63541 -0.46611,-0.19501 -0.94973,-0.40782 -1.43021,-0.63541 z m 1.43021,0.63541 c 0.93222,0.39005 1.79508,0.70843 2.42464,0.92935 -0.62956,-0.22092 -1.49242,-0.5393 -2.42464,-0.92935 z m 2.42464,0.92935 c 0.62957,0.22092 1.02587,0.344316 1.02587,0.344316 0,0 -0.3963,-0.123396 -1.02587,-0.344316 z M 76.353854,92.45138 c -0.04048,0.0416 -0.07271,0.0753 -0.112574,0.11634 0.03858,-0.0397 0.07343,-0.0761 0.112574,-0.11634 z m -2.435434,2.53366 c -0.02151,0.0229 -0.04711,0.0494 -0.06799,0.0717 0.0207,-0.0221 0.04666,-0.049 0.06799,-0.0717 z m -1.044162,1.16627 c -1.36e-4,2.4e-4 -0.0027,0.003 -0.0027,0.004 -4.81e-4,9.1e-4 -4.81e-4,0.003 -9.08e-4,0.004 4.81e-4,-9.1e-4 9.08e-4,-0.002 0.0018,-0.004 2.36e-4,-4.8e-4 0.0018,-0.003 0.0027,-0.004 z m 13.232127,0.19642 c 0.03132,0 0.423712,0.12427 1.028676,0.34432 C 86.530097,96.472 86.13771,96.34773 86.106385,96.34773 Z m 0,0 c -0.06263,0 -0.485564,0.36381 -1.116398,0.95006 0.630834,-0.58625 1.053747,-0.95006 1.116398,-0.95006 z m -1.116398,0.95006 c -0.630835,0.58627 -1.469599,1.39499 -2.364134,2.284496 0.894535,-0.889496 1.733299,-1.698226 2.364134,-2.284496 z m 2.145074,-0.60574 c 0.604974,0.22006 1.42238,0.53599 2.304098,0.91945 -0.881718,-0.38346 -1.699124,-0.69939 -2.304098,-0.91945 z m 2.304098,0.91945 c 0.440858,0.19174 0.897956,0.40027 1.35234,0.62223 -0.454384,-0.22196 -0.911482,-0.43049 -1.35234,-0.62223 z m 1.35234,0.62223 c 0.454384,0.22197 0.906072,0.4572 1.336864,0.70231 -0.430792,-0.24511 -0.88248,-0.48034 -1.336864,-0.70231 z m 1.336864,0.70231 c 0.430792,0.24511 0.840589,0.499996 1.210682,0.761176 -0.370093,-0.26118 -0.77989,-0.516066 -1.210682,-0.761176 z m 1.210682,0.761176 c 0.370085,0.26119 0.700583,0.528704 0.972861,0.798874 -0.272278,-0.27017 -0.602776,-0.537684 -0.972861,-0.798874 z m 0.972861,0.798874 c 0.266215,0.26416 0.530333,0.58758 0.788978,0.951 -0.258645,-0.36342 -0.522763,-0.68684 -0.788978,-0.951 z m 0.788978,0.951 c 0.25865,0.36342 0.51194,0.76684 0.75568,1.19171 -0.24374,-0.42487 -0.49703,-0.82829 -0.75568,-1.19171 z m 0.75568,1.19171 c 0.24147,0.42093 0.47316,0.86277 0.69282,1.30712 -0.21961,-0.44425 -0.4514,-0.88629 -0.69282,-1.30712 z m -23.31581,-4.73479 c -1.8e-5,0.005 0,0.01 0,0.015 0,-0.005 -1.8e-5,-0.01 0,-0.015 z m 24.02317,6.07109 c 0.21834,0.4429 0.42459,0.88813 0.61403,1.31701 -0.18952,-0.4291 -0.39558,-0.87391 -0.61403,-1.31701 z m 0.61403,1.31701 c 0.38374,0.86886 0.70093,1.67205 0.9222,2.25765 -0.22127,-0.5856 -0.53845,-1.38879 -0.9222,-2.25765 z m 0.9222,2.25765 c 0.22125,0.5856 0.34664,0.95383 0.34665,0.95383 0,0 -0.1254,-0.36823 -0.34665,-0.95383 z"
       sodipodi:nodetypes="scsccscscccssscccccccccccccccccccccccccccccccccccccccccccccscsccccccccccccccccccccccccccccccccccccccccccccccc"
       inkscape:export-filename="/home/davide/Desktop/assassin.png"
       inkscape:export-xdpi="96"
       inkscape:export-ydpi="96" />
    <path
       d="m 96.967584,73.18532 c -1.43736,-0.03865 -3.137792,1.687319 -12.868129,11.4253 -5.986268,5.99097 -11.038771,11.18582 -11.227766,11.54399 -0.438635,0.8317 -0.441821,2.67813 -0.0064,3.524236 0.596641,1.158604 2.880469,3.131374 3.833278,3.310874 1.917947,0.36132 2.437486,0.0627 5.927222,-3.407434 1.789078,-1.779016 3.35524,-3.234556 3.480532,-3.234556 0.125292,0 6.027315,1.98701 8.205521,4.14837 2.129742,2.11326 4.134892,8.00749 4.134892,8.00749 l -1.31153,1.38011 c -1.57904,1.66236 -1.71872,2.49078 -0.60886,3.60528 0.52863,0.53076 0.9263,0.70512 1.61127,0.70512 0.87101,0 1.20174,-0.2933 7.812436,-6.91708 3.79673,-3.80419 7.02962,-7.22277 7.18388,-7.596754 0.55328,-1.341326 -0.573,-2.850196 -2.12726,-2.850196 -0.63643,0 -1.07322,0.25767 -2.12069,1.25246 l -1.31903,1.252936 c 0,0 -6.34417,-1.974526 -8.571396,-4.266116 -2.07799,-2.13802 -3.76808,-8.12431 -3.76808,-8.12431 l 3.15406,-3.19688 c 1.734856,-1.75827 3.274136,-3.43423 3.420496,-3.72396 0.38385,-0.75989 0.32697,-2.406311 -0.1154,-3.342429 -0.55285,-1.169907 -2.518116,-2.917376 -3.670976,-3.264228 -0.39914,-0.12009 -0.71669,-0.223308 -1.04838,-0.232223 z"
       style="color:#000000;display:inline;fill:#254e70;fill-opacity:1;stroke-width:0.240666;-inkscape-stroke:none"
       id="path53625"
       inkscape:export-filename="/home/davide/Desktop/assassin.png"
       inkscape:export-xdpi="96"
       inkscape:export-ydpi="96" />
    <path
       style="display:inline;fill:#254e70;fill-opacity:1;stroke:none;stroke-width:0.240666px;stroke-linecap:butt;stroke-linejoin:miter;stroke-opacity:1"
       d="m 55.439242,90.3381 c -0.03141,1.27992 -1.531551,2.3432 -2.76961,2.64917 -2.549383,0.63003 -4.549716,-1.02944 -6.612265,-0.24483 -1.192316,0.45356 -1.846406,1.76611 -2.769609,2.64917 l -2.769609,2.64917 c -0.923202,0.88306 -1.846405,1.766106 -2.769608,2.64917 -0.923203,0.88306 -2.427732,1.41574 -2.769609,2.64917 -0.689507,2.48763 1.762559,3.05556 1.073051,5.54318 -0.341876,1.23343 -1.49475,2.66842 -2.769608,2.64917 -4.212908,-0.0636 -8.886253,-9.02679 -8.886253,-9.02679 L 41.547237,84.75941 c 0,0 -3.923563,-3.68785 -3.716592,-5.46539 0.480676,-1.33481 1.778016,-2.219758 2.173462,-2.248753 1.732449,-0.09982 3.727304,1.201323 5.890054,3.216633 3.383878,3.15318 9.658826,5.44201 9.545081,10.0762 z"
       id="path10005"
       sodipodi:nodetypes="ssassssssccccss"
       inkscape:export-filename="/home/davide/Desktop/assassin.png"
       inkscape:export-xdpi="96"
       inkscape:export-ydpi="96" />
    <g
       aria-label="ASSASSIN"
       transform="matrix(0.71690358,-0.71368619,0.71690358,0.71368619,-47.856838,-158.32586)"
       id="text42412"
       style="font-weight:bold;font-size:12.4278px;line-height:1.25;font-family:'Nimbus Mono PS';-inkscape-font-specification:'Nimbus Mono PS, Bold';display:inline;fill:#aef3e7;stroke-width:0.310693"
       inkscape:export-filename="/home/davide/Desktop/assassin.png"
       inkscape:export-xdpi="96"
       inkscape:export-ydpi="96">
      <path
         d="m -86.469416,240.77633 0.236129,0.5841 h -0.211273 c -0.323123,0 -0.422545,0.0249 -0.546823,0.0994 -0.198845,0.11185 -0.323123,0.32313 -0.323123,0.54683 0,0.21127 0.09942,0.39769 0.273412,0.52197 0.124278,0.087 0.298267,0.12427 0.596534,0.12427 h 1.727464 c 0.260984,0 0.447401,-0.0248 0.546823,-0.087 0.198845,-0.11185 0.323123,-0.33555 0.323123,-0.55925 0,-0.19885 -0.09942,-0.39769 -0.273411,-0.52197 -0.136706,-0.087 -0.248556,-0.11185 -0.584107,-0.12428 l -2.473132,-5.71679 h -2.721688 c -0.335551,0 -0.434973,0.0124 -0.559251,0.087 -0.198845,0.12428 -0.323123,0.33555 -0.323123,0.54682 0,0.21127 0.09942,0.39769 0.285839,0.52197 0.124278,0.0994 0.260984,0.12428 0.596535,0.12428 h 0.708384 l -1.889025,4.43672 c -0.546824,0 -0.845091,0.2237 -0.845091,0.64625 0,0.43497 0.28584,0.64624 0.869946,0.64624 h 1.652898 c 0.260983,0 0.4474,-0.0248 0.546823,-0.087 0.198845,-0.12428 0.323123,-0.33555 0.323123,-0.55925 0,-0.19885 -0.09942,-0.39769 -0.273412,-0.52197 -0.136706,-0.0994 -0.248556,-0.12428 -0.596534,-0.12428 h -0.211273 l 0.248556,-0.5841 z m -0.559251,-1.28007 h -1.802031 l 0.90723,-2.1003 z"
         id="path64635" />
      <path
         d="m -77.68298,236.30232 c 0,-0.32313 -0.01243,-0.41012 -0.08699,-0.5344 -0.111851,-0.18641 -0.335551,-0.29826 -0.571679,-0.29826 -0.248556,0 -0.385262,0.0994 -0.50954,0.37283 -0.410117,-0.23613 -0.969368,-0.37283 -1.603186,-0.37283 -1.565903,0 -2.734116,0.91965 -2.734116,2.13758 0,0.69595 0.397689,1.3422 1.043935,1.69018 0.410117,0.2237 0.795379,0.33555 1.628042,0.47225 0.820235,0.14914 1.019079,0.19885 1.292491,0.32313 0.248556,0.12427 0.410117,0.34798 0.410117,0.57168 0,0.48468 -0.695956,0.85751 -1.590758,0.85751 -0.795379,0 -1.565903,-0.33555 -1.690181,-0.73324 -0.09942,-0.32312 -0.09942,-0.32312 -0.186417,-0.42254 -0.124278,-0.11185 -0.298267,-0.17399 -0.484684,-0.17399 -0.211273,0 -0.410117,0.0994 -0.546823,0.26098 -0.08699,0.12428 -0.124278,0.26099 -0.124278,0.57168 v 0.78295 c 0,0.55925 0.2237,0.83267 0.671101,0.83267 0.211273,0 0.323123,-0.0621 0.521968,-0.27342 0.633817,0.3107 1.255207,0.4474 1.926309,0.4474 1.727464,0 2.895677,-0.85751 2.895677,-2.12515 0,-0.63382 -0.248556,-1.13093 -0.745668,-1.51619 -0.39769,-0.29827 -0.882374,-0.47226 -1.97602,-0.65867 -0.944513,-0.17399 -0.981796,-0.18642 -1.230352,-0.3107 -0.248556,-0.11185 -0.422546,-0.37283 -0.422546,-0.60896 0,-0.47226 0.596535,-0.84509 1.354631,-0.84509 0.758095,0 1.317346,0.31069 1.429197,0.75809 0.08699,0.39769 0.08699,0.39769 0.186417,0.49712 0.11185,0.11185 0.298267,0.18641 0.484684,0.18641 0.211272,0 0.397689,-0.0994 0.534395,-0.26098 0.09942,-0.13671 0.124278,-0.23613 0.124278,-0.57168 z"
         id="path64637" />
      <path
         d="m -70.226318,236.30232 c 0,-0.32313 -0.01243,-0.41012 -0.08699,-0.5344 -0.11185,-0.18641 -0.335551,-0.29826 -0.571679,-0.29826 -0.248556,0 -0.385262,0.0994 -0.50954,0.37283 -0.410117,-0.23613 -0.969368,-0.37283 -1.603186,-0.37283 -1.565903,0 -2.734116,0.91965 -2.734116,2.13758 0,0.69595 0.39769,1.3422 1.043935,1.69018 0.410118,0.2237 0.795379,0.33555 1.628042,0.47225 0.820235,0.14914 1.01908,0.19885 1.292491,0.32313 0.248556,0.12427 0.410118,0.34798 0.410118,0.57168 0,0.48468 -0.695957,0.85751 -1.590759,0.85751 -0.795379,0 -1.565903,-0.33555 -1.690181,-0.73324 -0.09942,-0.32312 -0.09942,-0.32312 -0.186417,-0.42254 -0.124278,-0.11185 -0.298267,-0.17399 -0.484684,-0.17399 -0.211272,0 -0.410117,0.0994 -0.546823,0.26098 -0.087,0.12428 -0.124278,0.26099 -0.124278,0.57168 v 0.78295 c 0,0.55925 0.2237,0.83267 0.671101,0.83267 0.211273,0 0.323123,-0.0621 0.521968,-0.27342 0.633818,0.3107 1.255208,0.4474 1.926309,0.4474 1.727464,0 2.895677,-0.85751 2.895677,-2.12515 0,-0.63382 -0.248556,-1.13093 -0.745668,-1.51619 -0.397689,-0.29827 -0.882374,-0.47226 -1.97602,-0.65867 -0.944513,-0.17399 -0.981796,-0.18642 -1.230352,-0.3107 -0.248556,-0.11185 -0.422545,-0.37283 -0.422545,-0.60896 0,-0.47226 0.596534,-0.84509 1.35463,-0.84509 0.758096,0 1.317347,0.31069 1.429197,0.75809 0.08699,0.39769 0.08699,0.39769 0.186417,0.49712 0.11185,0.11185 0.298267,0.18641 0.484684,0.18641 0.211273,0 0.39769,-0.0994 0.534395,-0.26098 0.09942,-0.13671 0.124279,-0.23613 0.124279,-0.57168 z"
         id="path64639" />
      <path
         d="m -64.099432,240.77633 0.236128,0.5841 h -0.211272 c -0.323123,0 -0.422546,0.0249 -0.546824,0.0994 -0.198844,0.11185 -0.323122,0.32313 -0.323122,0.54683 0,0.21127 0.09942,0.39769 0.273411,0.52197 0.124278,0.087 0.298268,0.12427 0.596535,0.12427 h 1.727464 c 0.260984,0 0.447401,-0.0248 0.546823,-0.087 0.198845,-0.11185 0.323123,-0.33555 0.323123,-0.55925 0,-0.19885 -0.09942,-0.39769 -0.273412,-0.52197 -0.136705,-0.087 -0.248556,-0.11185 -0.584106,-0.12428 l -2.473133,-5.71679 h -2.721688 c -0.33555,0 -0.434973,0.0124 -0.559251,0.087 -0.198845,0.12428 -0.323123,0.33555 -0.323123,0.54682 0,0.21127 0.09942,0.39769 0.28584,0.52197 0.124278,0.0994 0.260984,0.12428 0.596534,0.12428 h 0.708385 l -1.889026,4.43672 c -0.546823,0 -0.84509,0.2237 -0.84509,0.64625 0,0.43497 0.285839,0.64624 0.869946,0.64624 h 1.652897 c 0.260984,0 0.447401,-0.0248 0.546823,-0.087 0.198845,-0.12428 0.323123,-0.33555 0.323123,-0.55925 0,-0.19885 -0.09942,-0.39769 -0.273411,-0.52197 -0.136706,-0.0994 -0.248556,-0.12428 -0.596535,-0.12428 h -0.211272 l 0.248556,-0.5841 z m -0.559251,-1.28007 h -1.802031 l 0.907229,-2.1003 z"
         id="path64641" />
      <path
         d="m -55.312996,236.30232 c 0,-0.32313 -0.01243,-0.41012 -0.087,-0.5344 -0.11185,-0.18641 -0.33555,-0.29826 -0.571678,-0.29826 -0.248556,0 -0.385262,0.0994 -0.50954,0.37283 -0.410118,-0.23613 -0.969369,-0.37283 -1.603186,-0.37283 -1.565903,0 -2.734117,0.91965 -2.734117,2.13758 0,0.69595 0.39769,1.3422 1.043936,1.69018 0.410117,0.2237 0.795379,0.33555 1.628042,0.47225 0.820234,0.14914 1.019079,0.19885 1.292491,0.32313 0.248556,0.12427 0.410117,0.34798 0.410117,0.57168 0,0.48468 -0.695957,0.85751 -1.590758,0.85751 -0.79538,0 -1.565903,-0.33555 -1.690181,-0.73324 -0.09942,-0.32312 -0.09942,-0.32312 -0.186417,-0.42254 -0.124278,-0.11185 -0.298267,-0.17399 -0.484684,-0.17399 -0.211273,0 -0.410118,0.0994 -0.546824,0.26098 -0.08699,0.12428 -0.124278,0.26099 -0.124278,0.57168 v 0.78295 c 0,0.55925 0.223701,0.83267 0.671102,0.83267 0.211272,0 0.323122,-0.0621 0.521967,-0.27342 0.633818,0.3107 1.255208,0.4474 1.926309,0.4474 1.727465,0 2.895678,-0.85751 2.895678,-2.12515 0,-0.63382 -0.248556,-1.13093 -0.745668,-1.51619 -0.39769,-0.29827 -0.882374,-0.47226 -1.97602,-0.65867 -0.944513,-0.17399 -0.981797,-0.18642 -1.230353,-0.3107 -0.248556,-0.11185 -0.422545,-0.37283 -0.422545,-0.60896 0,-0.47226 0.596534,-0.84509 1.35463,-0.84509 0.758096,0 1.317347,0.31069 1.429197,0.75809 0.087,0.39769 0.087,0.39769 0.186417,0.49712 0.111851,0.11185 0.298268,0.18641 0.484685,0.18641 0.211272,0 0.397689,-0.0994 0.534395,-0.26098 0.09942,-0.13671 0.124278,-0.23613 0.124278,-0.57168 z"
         id="path64643" />
      <path
         d="m -47.856335,236.30232 c 0,-0.32313 -0.01243,-0.41012 -0.08699,-0.5344 -0.111851,-0.18641 -0.335551,-0.29826 -0.571679,-0.29826 -0.248556,0 -0.385262,0.0994 -0.50954,0.37283 -0.410117,-0.23613 -0.969368,-0.37283 -1.603186,-0.37283 -1.565903,0 -2.734116,0.91965 -2.734116,2.13758 0,0.69595 0.397689,1.3422 1.043935,1.69018 0.410117,0.2237 0.795379,0.33555 1.628042,0.47225 0.820235,0.14914 1.019079,0.19885 1.292491,0.32313 0.248556,0.12427 0.410117,0.34798 0.410117,0.57168 0,0.48468 -0.695956,0.85751 -1.590758,0.85751 -0.795379,0 -1.565903,-0.33555 -1.690181,-0.73324 -0.09942,-0.32312 -0.09942,-0.32312 -0.186417,-0.42254 -0.124278,-0.11185 -0.298267,-0.17399 -0.484684,-0.17399 -0.211273,0 -0.410118,0.0994 -0.546823,0.26098 -0.087,0.12428 -0.124278,0.26099 -0.124278,0.57168 v 0.78295 c 0,0.55925 0.2237,0.83267 0.671101,0.83267 0.211273,0 0.323123,-0.0621 0.521968,-0.27342 0.633817,0.3107 1.255207,0.4474 1.926309,0.4474 1.727464,0 2.895677,-0.85751 2.895677,-2.12515 0,-0.63382 -0.248556,-1.13093 -0.745668,-1.51619 -0.39769,-0.29827 -0.882374,-0.47226 -1.97602,-0.65867 -0.944513,-0.17399 -0.981796,-0.18642 -1.230352,-0.3107 -0.248556,-0.11185 -0.422546,-0.37283 -0.422546,-0.60896 0,-0.47226 0.596535,-0.84509 1.354631,-0.84509 0.758095,0 1.317346,0.31069 1.429197,0.75809 0.08699,0.39769 0.08699,0.39769 0.186417,0.49712 0.11185,0.11185 0.298267,0.18641 0.484684,0.18641 0.211272,0 0.397689,-0.0994 0.534395,-0.26098 0.09942,-0.13671 0.124278,-0.23613 0.124278,-0.57168 z"
         id="path64645" />
      <path
         d="m -42.475116,236.92371 h 1.205496 c 0.28584,0 0.434973,-0.0249 0.546824,-0.087 0.198844,-0.12427 0.323122,-0.33555 0.323122,-0.55925 0,-0.19884 -0.09942,-0.38526 -0.273411,-0.50954 -0.136706,-0.0994 -0.248556,-0.12428 -0.596535,-0.12428 h -3.753195 c -0.323123,0 -0.422545,0.0124 -0.546823,0.087 -0.198845,0.12428 -0.323123,0.33555 -0.323123,0.54682 0,0.21127 0.09942,0.41012 0.273411,0.52197 0.136706,0.0994 0.273412,0.12428 0.596535,0.12428 h 1.205496 v 4.44915 h -1.205496 c -0.323123,0 -0.422545,0.0124 -0.546823,0.087 -0.198845,0.12428 -0.323123,0.33556 -0.323123,0.54683 0,0.43497 0.298267,0.64624 0.869946,0.64624 h 3.753195 c 0.571679,0 0.869946,-0.21127 0.869946,-0.64624 0,-0.19885 -0.09942,-0.38526 -0.273411,-0.50954 -0.136706,-0.0994 -0.260984,-0.12428 -0.596535,-0.12428 h -1.205496 z"
         id="path64647" />
      <path
         d="m -37.218176,238.09192 3.144234,4.561 h 1.304919 v -5.72921 c 0.484684,-0.0124 0.758096,-0.23613 0.758096,-0.63382 0,-0.21127 -0.09942,-0.39769 -0.273412,-0.52197 -0.136706,-0.0994 -0.260984,-0.12428 -0.596534,-0.12428 h -1.615614 c -0.310695,0 -0.434973,0.0249 -0.546824,0.087 -0.198844,0.12428 -0.323122,0.33555 -0.323122,0.55925 0,0.19884 0.09942,0.39769 0.273411,0.52197 0.136706,0.087 0.273412,0.11185 0.596535,0.11185 h 0.385261 v 3.25608 l -3.131805,-4.53615 h -1.454053 c -0.310695,0 -0.434973,0.0249 -0.546823,0.087 -0.198845,0.12428 -0.323123,0.33555 -0.323123,0.55925 0,0.19884 0.11185,0.39769 0.273412,0.52197 0.136706,0.087 0.273411,0.11185 0.596534,0.11185 h 0.136706 v 4.44915 c -0.472256,0 -0.758096,0.23613 -0.758096,0.63382 0,0.42254 0.298267,0.64624 0.882374,0.64624 h 1.603186 c 0.571679,0 0.869946,-0.21127 0.869946,-0.64624 0,-0.19885 -0.09942,-0.39769 -0.273411,-0.52197 -0.136706,-0.0994 -0.248556,-0.11185 -0.596535,-0.11185 h -0.385262 z"
         id="path64649" />
    </g>
    <path
       d="m 32.233849,24.360961 c -8.342658,-0.09628 4.734382,3.836759 6.972601,5.902268 4.791821,4.422058 2.791759,4.019085 13.796885,13.871821 7.555958,6.764744 10.156397,6.632093 10.156397,6.632093 1.253299,-0.413537 -0.561513,-1.899488 -7.222373,-9.405061 C 47.152304,31.462942 43.08059,27.518271 42.380533,27.159651 38.380375,25.226055 34.787723,24.390439 32.233849,24.360961 Z"
       style="color:#000000;display:inline;fill:#c33c54;fill-opacity:0.937255;stroke-width:0.240666;-inkscape-stroke:none"
       id="path59523"
       sodipodi:nodetypes="sascscs"
       inkscape:export-filename="/home/davide/Desktop/assassin.png"
       inkscape:export-xdpi="96"
       inkscape:export-ydpi="96" />
  </g>
</svg>
